<?xml version="1.0" standalone="no"?>
<!DOCTYPE svg PUBLIC "-//W3C//DTD SVG 20010904//EN"
 "http://www.w3.org/TR/2001/REC-SVG-20010904/DTD/svg10.dtd">
<svg version="1.0" xmlns="http://www.w3.org/2000/svg"
 width="1966.000000pt" height="1966.000000pt" viewBox="0 0 1966.000000 1966.000000"
 preserveAspectRatio="xMidYMid meet">

<g transform="translate(0.000000,1966.000000) scale(0.100000,-0.100000)"
fill="#000000" stroke="none">
<path d="M9665 18513 c-709 -25 -1337 -112 -1960 -273 -351 -91 -694 -202
-1036 -335 -157 -61 -210 -84 -484 -208 -494 -223 -1127 -603 -1585 -951 -129
-98 -392 -308 -440 -351 -19 -18 -82 -74 -140 -125 -189 -166 -497 -475 -704
-705 -272 -302 -670 -828 -856 -1130 -192 -312 -184 -299 -313 -535 -143 -261
-291 -572 -412 -865 -111 -269 -258 -698 -325 -950 -12 -44 -30 -111 -41 -150
-72 -264 -168 -757 -208 -1071 -11 -82 -25 -203 -31 -269 -6 -66 -15 -167 -20
-225 -23 -243 -32 -652 -20 -940 6 -157 15 -303 20 -325 5 -22 10 -78 10 -125
0 -47 7 -139 16 -205 8 -66 19 -156 24 -200 17 -150 63 -422 81 -481 5 -17 9
-47 9 -67 0 -20 4 -46 9 -59 5 -13 14 -50 21 -83 13 -68 56 -260 72 -320 23
-85 48 -182 59 -220 5 -16 20 -68 34 -115 14 -47 30 -103 36 -125 6 -22 15
-49 19 -60 4 -11 15 -42 23 -70 60 -192 211 -592 288 -763 16 -34 29 -64 29
-67 0 -15 213 -452 298 -611 70 -130 154 -274 307 -524 55 -90 239 -362 311
-460 18 -25 48 -65 66 -90 396 -538 963 -1132 1482 -1552 39 -32 89 -73 111
-91 105 -88 416 -315 580 -424 203 -135 400 -256 548 -337 26 -14 58 -32 70
-40 63 -41 471 -248 592 -301 22 -10 73 -33 112 -51 40 -19 75 -34 78 -34 2 0
28 -11 57 -24 58 -26 246 -102 293 -118 17 -5 39 -14 50 -19 61 -28 475 -167
575 -194 36 -9 74 -21 85 -26 22 -10 99 -31 220 -60 44 -11 114 -28 155 -38
83 -22 152 -38 190 -44 14 -3 84 -17 155 -32 166 -34 300 -57 440 -76 44 -5
107 -14 140 -18 75 -11 439 -47 605 -61 69 -5 312 -10 541 -10 575 0 865 22
1447 110 34 6 81 14 105 20 24 5 81 16 128 25 194 35 383 78 579 132 69 18
150 41 180 49 268 72 760 249 1055 379 33 15 75 33 93 41 17 8 49 21 70 31
164 72 544 268 702 361 52 31 115 67 139 80 130 70 552 354 775 520 201 150
504 397 566 462 3 3 48 43 100 90 105 93 419 405 520 516 353 386 565 653 852
1074 101 149 328 513 328 527 0 2 10 20 23 41 80 127 288 540 402 797 185 416
387 1010 485 1423 12 48 27 114 35 147 39 160 81 387 135 725 19 117 49 408
66 629 31 412 22 1042 -22 1491 -105 1070 -399 2089 -883 3060 -365 730 -813
1383 -1376 2005 -263 290 -653 656 -985 924 -1423 1148 -3176 1825 -5000 1930
-185 11 -620 19 -755 14z m1132 -889 c-3 -3 -12 -4 -19 -1 -8 3 -5 6 6 6 11 1
17 -2 13 -5z m160 -20 c-3 -3 -12 -4 -19 -1 -8 3 -5 6 6 6 11 1 17 -2 13 -5z
m-766 -149 c76 -27 129 -98 129 -172 0 -21 -29 -288 -64 -593 -36 -305 -74
-638 -86 -740 -12 -102 -27 -238 -35 -303 -8 -65 -11 -125 -8 -133 9 -24 53
-29 73 -8 20 21 21 26 105 754 105 916 115 991 129 1019 9 16 29 40 46 55 57
48 84 50 315 22 116 -14 235 -32 265 -41 168 -51 333 -214 397 -395 36 -100
43 -258 18 -363 -44 -183 -159 -321 -347 -413 -29 -15 -54 -28 -56 -29 -1 -1
40 -84 92 -183 53 -100 118 -226 145 -281 l50 -99 -82 1 c-76 2 -83 4 -98 27
-35 55 -319 618 -319 632 0 10 19 19 56 27 90 20 228 95 293 159 141 139 171
364 73 546 -57 106 -180 212 -284 246 -65 20 -339 48 -375 38 -58 -16 -62 -32
-104 -381 -21 -177 -39 -334 -39 -349 0 -28 0 -28 20 -8 29 29 62 34 174 24
177 -15 245 -12 299 15 69 34 100 85 105 171 5 75 -17 131 -66 177 -46 43 -77
52 -219 68 -181 20 -207 28 -223 64 -16 41 3 99 36 112 17 6 81 2 197 -11 200
-24 247 -41 321 -120 62 -67 98 -145 104 -230 12 -165 -72 -321 -211 -390 -67
-33 -134 -38 -276 -20 -41 6 -76 8 -78 6 -4 -3 82 -170 308 -597 60 -114 109
-211 109 -215 0 -9 -112 -48 -137 -49 -15 0 -463 896 -464 928 -2 50 -11 -20
-64 -472 -60 -521 -58 -513 -134 -566 -37 -26 -51 -30 -109 -30 -53 0 -76 6
-110 25 -54 31 -92 91 -92 148 0 22 43 409 95 859 52 450 95 835 97 856 2 41
-11 57 -48 57 -45 0 -43 10 -119 -660 -14 -124 -32 -279 -40 -345 -8 -66 -33
-280 -55 -475 -23 -195 -44 -365 -47 -378 -7 -28 -32 -42 -76 -42 -45 0 -71
29 -69 78 3 89 205 1802 218 1848 31 113 148 170 265 129z m-937 -67 c19 -31
250 -1876 241 -1927 -19 -108 -136 -180 -243 -150 -68 19 -127 81 -141 150 -7
30 -59 430 -116 889 -57 459 -107 843 -110 852 -15 38 -81 33 -91 -7 -3 -13
44 -423 105 -912 61 -488 111 -903 111 -920 0 -43 -30 -73 -72 -73 -39 0 -51
7 -66 37 -7 11 -63 434 -126 940 -124 988 -123 968 -73 1035 82 111 278 104
337 -12 16 -32 41 -208 130 -916 63 -507 114 -882 121 -891 16 -18 69 -13 82
8 7 12 -22 273 -103 920 -62 497 -113 917 -112 933 1 41 28 66 73 66 29 0 42
-6 53 -22z m-2063 -468 c21 -11 50 -37 63 -58 13 -20 106 -266 206 -547 270
-755 267 -748 279 -778 17 -43 13 -66 -14 -92 -29 -30 -84 -34 -107 -7 -9 9
-118 303 -242 652 -125 349 -234 645 -242 658 -10 14 -24 22 -44 22 -22 0 -31
-5 -35 -22 -4 -15 35 -136 108 -338 63 -173 174 -484 247 -690 73 -206 136
-379 140 -383 4 -5 211 64 459 152 488 174 514 180 590 142 77 -40 120 -142
97 -232 -15 -56 -43 -90 -101 -124 -67 -39 -76 -39 -126 3 -25 20 -56 44 -69
53 -24 16 -24 16 43 38 37 12 77 31 89 41 20 16 21 21 10 44 -6 15 -20 30 -29
33 -10 4 -69 -11 -142 -36 -114 -40 -132 -44 -230 -45 -123 -1 -160 -16 -245
-96 -28 -26 -64 -52 -81 -58 -16 -5 -88 -31 -159 -56 -70 -25 -138 -46 -150
-46 -29 0 -64 34 -83 77 -8 19 -36 96 -63 172 -125 353 -267 750 -356 996
-123 342 -131 404 -57 486 61 68 157 83 244 39z m-460 -130 c10 -6 26 -24 34
-41 14 -26 140 -373 300 -824 29 -82 72 -202 95 -265 23 -63 66 -183 95 -267
88 -251 105 -279 180 -314 60 -28 126 -24 238 15 53 19 97 33 97 31 0 -17 -41
-91 -76 -137 -51 -66 -86 -80 -192 -80 -83 1 -151 24 -205 73 -77 67 -62 31
-337 804 -101 281 -203 566 -227 635 -98 273 -108 306 -95 335 17 37 59 53 93
35z m6479 -90 c41 -21 83 -69 95 -109 11 -35 8 -147 -9 -370 -9 -108 -22 -290
-31 -406 -8 -115 -20 -266 -25 -335 -5 -69 -24 -314 -41 -545 -17 -231 -36
-431 -43 -445 -6 -15 -21 -26 -36 -29 -32 -4 -85 25 -98 54 -8 16 11 286 69
1020 59 748 76 1001 68 1011 -15 18 -53 18 -68 0 -6 -7 -16 -74 -21 -147 -30
-395 -102 -1333 -111 -1454 -18 -225 -57 -293 -174 -303 -103 -8 -221 60 -243
142 -6 21 -3 108 8 247 10 118 20 238 21 268 l3 55 -164 77 -165 77 -80 -77
c-172 -166 -246 -236 -253 -239 -4 -1 -32 23 -62 53 l-55 56 180 178 c134 133
189 180 213 186 27 6 58 -5 200 -70 294 -134 294 -135 320 -187 l23 -46 -20
-239 c-28 -316 -28 -323 -7 -338 9 -7 25 -11 35 -8 34 9 50 66 61 220 6 81 19
261 30 398 11 138 33 437 50 665 16 228 34 442 39 474 14 79 47 127 112 160
64 32 125 34 179 6z m-408 -147 c12 -10 18 -30 18 -57 0 -81 -52 -752 -61
-788 -12 -47 -65 -90 -111 -91 -34 0 -327 130 -360 160 -44 40 -1 123 63 123
18 0 82 -23 142 -51 60 -28 111 -48 114 -45 4 4 28 334 33 450 0 10 -61 -48
-450 -429 -118 -116 -272 -266 -342 -334 l-127 -123 -44 34 c-25 18 -53 38
-63 45 -18 11 -15 16 31 60 28 26 272 265 543 532 271 267 507 495 524 508 38
27 65 29 90 6z m-6800 -587 c233 -59 405 -170 553 -356 156 -197 219 -373 219
-620 1 -159 -11 -236 -55 -369 -107 -315 -383 -568 -725 -663 -66 -18 -106
-22 -244 -22 -211 -1 -311 20 -474 101 -257 125 -461 377 -542 669 -10 38 -18
115 -21 214 -5 141 -3 165 21 270 55 243 189 446 403 606 125 95 315 173 468
193 108 15 290 4 397 -23z m8677 -121 c37 -32 55 -84 46 -133 -4 -20 -169
-442 -367 -937 -384 -960 -379 -946 -317 -953 15 -2 32 5 41 15 10 10 143 336
298 723 368 924 356 895 404 946 96 99 231 74 299 -56 26 -50 28 -62 24 -125
-5 -72 3 -52 -421 -1095 l-26 -65 63 65 c34 36 190 202 346 370 156 168 301
317 323 332 77 53 174 47 245 -15 72 -63 90 -158 44 -232 -33 -53 -1230 -1329
-1269 -1353 -61 -37 -125 -13 -162 62 -38 79 -33 99 131 506 83 206 245 609
360 896 115 286 209 530 209 541 0 11 -9 28 -19 37 -24 22 -54 9 -75 -32 -8
-15 -84 -202 -169 -417 -85 -214 -223 -561 -306 -770 -83 -210 -164 -399 -180
-421 -46 -62 -99 -87 -176 -82 -53 3 -71 9 -102 35 -58 46 -78 88 -78 158 1
52 14 93 104 320 57 143 137 346 178 450 76 194 282 714 359 908 23 59 41 107
39 107 -4 0 -47 -45 -286 -300 -532 -569 -839 -901 -839 -910 0 -31 59 -61 86
-42 5 4 140 147 298 317 361 388 366 393 397 400 37 9 89 -36 89 -76 0 -33 18
-12 -305 -359 -435 -468 -426 -460 -508 -460 -87 0 -162 47 -198 125 -44 95
-26 132 150 320 63 67 305 326 854 915 298 319 340 348 416 285z m-3607 -485
c-217 -145 -409 -427 -468 -687 -24 -104 -23 -282 0 -388 66 -296 229 -496
521 -642 115 -58 196 -73 393 -75 62 -1 109 -4 105 -9 -23 -22 -145 -79 -188
-89 -65 -15 -156 5 -290 65 -142 62 -139 33 5 -55 102 -62 170 -82 265 -78 93
4 154 29 296 120 98 64 156 95 190 102 13 3 40 10 59 15 71 22 104 15 158 -34
59 -53 81 -95 123 -234 36 -123 58 -167 101 -207 31 -29 99 -74 111 -74 3 0
-6 30 -20 68 -50 135 -68 220 -78 382 -4 52 -9 104 -12 115 -3 11 -2 17 2 13
4 -4 24 -58 45 -120 40 -121 103 -283 151 -387 107 -231 95 -302 -78 -472 -86
-83 -105 -97 -158 -113 -66 -20 -150 -60 -160 -76 -14 -23 -22 -8 -11 23 23
64 57 117 119 189 108 123 122 150 122 239 0 71 -3 81 -31 120 -18 24 -50 53
-71 64 -22 11 -38 26 -36 33 3 6 1 12 -4 12 -4 0 -101 16 -214 35 -332 56
-434 60 -662 25 -141 -21 -297 12 -518 109 -157 70 -230 81 -484 79 l-200 -2
-90 37 c-165 67 -180 69 -600 76 -375 7 -381 7 -485 35 -90 24 -118 27 -200
24 -82 -4 -118 -13 -265 -62 -93 -31 -204 -61 -245 -67 -187 -25 -240 -46
-304 -121 l-36 -42 1 45 c1 24 4 70 8 103 6 57 6 58 24 38 17 -19 17 -22 3
-51 -35 -67 -7 -83 41 -23 45 56 129 208 152 275 11 32 25 104 31 159 14 136
13 744 -1 827 -14 82 -87 309 -122 377 -24 47 -77 104 -109 117 -21 9 59 75
106 88 74 20 170 -1 264 -58 56 -35 220 -170 221 -184 1 -3 -20 -41 -45 -85
-64 -111 -142 -277 -165 -348 -53 -164 -63 -262 -51 -479 12 -218 30 -231 66
-47 50 252 181 566 282 679 60 67 103 83 244 87 178 6 651 24 905 34 155 7
259 16 320 29 50 10 91 18 92 17 7 -6 -102 -118 -147 -152 -53 -40 -61 -54
-32 -54 52 0 132 58 287 211 88 87 178 172 200 190 148 119 397 251 552 293
48 14 92 25 96 25 5 1 -32 -26 -81 -59z m4509 -67 c13 -16 12 -17 -3 -4 -17
13 -22 21 -14 21 2 0 10 -8 17 -17z m-11861 -227 c0 -2 -8 -10 -17 -17 -16
-13 -17 -12 -4 4 13 16 21 21 21 13z m7546 -313 c2 -70 8 -143 13 -162 6 -19
9 -36 7 -38 -13 -13 -85 15 -119 46 -63 59 -70 156 -17 224 19 24 100 71 108
62 3 -2 6 -62 8 -132z m-7756 64 c0 -2 -10 -12 -22 -23 l-23 -19 19 23 c18 21
26 27 26 19z m-154 -195 c-17 -16 -18 -16 -5 5 7 12 15 20 18 17 3 -2 -3 -12
-13 -22z m254 -25 c0 -2 -10 -12 -22 -23 l-23 -19 19 23 c18 21 26 27 26 19z
m12631 -64 c13 -16 12 -17 -3 -4 -10 7 -18 15 -18 17 0 8 8 3 21 -13z m-12148
-330 c133 -39 265 -132 330 -231 24 -37 51 -86 61 -109 18 -40 20 -42 50 -35
17 4 81 7 141 6 125 0 213 -24 323 -88 245 -144 353 -458 251 -731 -24 -63
-120 -228 -158 -268 -68 -74 -171 -92 -253 -45 -52 31 -73 59 -89 120 -15 56
8 150 57 232 94 158 70 311 -56 365 -58 25 -82 26 -141 6 -59 -20 -110 -64
-158 -133 -80 -116 -176 -181 -249 -167 -87 16 -162 81 -183 157 -18 69 -6
135 46 241 43 88 47 101 43 152 -8 95 -62 147 -161 153 -88 5 -107 -11 -208
-167 -93 -144 -120 -167 -168 -140 -41 23 -50 76 -22 130 48 92 151 235 188
260 128 89 306 77 422 -27 75 -67 105 -137 106 -244 0 -80 -2 -89 -41 -165
-23 -44 -44 -92 -48 -107 -13 -56 29 -102 73 -79 10 6 39 41 64 78 57 87 91
123 147 155 252 146 553 -3 568 -280 5 -88 -6 -122 -83 -247 -30 -50 -55 -96
-55 -102 0 -21 38 -53 63 -53 19 0 36 19 85 98 74 120 92 171 92 268 0 161
-80 302 -224 396 -66 43 -168 78 -226 78 -21 0 -96 -13 -165 -30 -69 -16 -128
-30 -130 -30 -1 0 -10 34 -20 75 -33 150 -104 244 -234 314 -159 84 -384 50
-508 -76 -57 -59 -229 -331 -217 -343 10 -10 163 -107 594 -378 823 -516 879
-553 909 -597 61 -90 22 -228 -80 -280 -16 -9 -51 -18 -77 -21 -60 -7 -101 14
-387 195 -115 74 -313 199 -440 279 -126 79 -343 216 -482 303 -138 88 -256
159 -262 159 -15 0 -41 -41 -41 -65 0 -17 76 -69 363 -250 199 -125 448 -282
552 -348 105 -66 251 -159 325 -205 361 -228 359 -226 326 -291 -29 -55 -61
-45 -252 75 -93 59 -281 177 -419 264 -137 86 -317 200 -400 252 -82 52 -244
154 -360 227 -115 73 -223 144 -239 159 -77 73 -75 215 6 288 54 50 131 68
192 44 22 -8 260 -156 561 -347 39 -25 185 -117 325 -205 140 -88 332 -209
426 -269 95 -60 180 -109 191 -109 28 0 43 20 43 56 0 31 -8 37 -282 210 -156
98 -418 263 -583 367 -695 439 -645 403 -665 478 -14 50 -6 67 106 248 138
224 232 312 381 360 135 43 243 48 356 14z m8367 -144 c64 -42 194 -121 290
-174 573 -319 870 -609 1099 -1074 152 -309 204 -534 221 -951 5 -124 16 -344
25 -490 18 -309 19 -526 5 -671 -28 -283 -145 -577 -362 -911 -75 -116 -84
-151 -26 -99 20 17 42 31 50 31 69 0 111 -231 128 -695 6 -154 15 -309 20
-345 6 -36 13 -146 16 -245 6 -177 6 -181 -20 -249 -42 -110 -96 -188 -143
-206 -40 -16 -153 8 -240 52 -124 62 -236 164 -383 348 -19 24 -47 58 -61 75
-14 16 -47 59 -74 95 -27 36 -52 67 -55 70 -3 3 -32 39 -65 80 -33 41 -67 81
-75 90 -8 8 -40 44 -70 79 -30 35 -98 100 -150 146 -299 258 -529 355 -930
390 -475 41 -676 33 -935 -39 -27 -8 -114 -39 -193 -70 -127 -50 -352 -120
-360 -111 -2 1 37 23 85 48 270 138 666 236 1083 267 283 21 396 36 406 51 10
16 -44 28 -171 39 -115 9 -137 14 -292 71 -382 138 -763 194 -1058 155 -124
-16 -146 -21 -327 -75 -148 -44 -238 -42 -238 4 0 13 59 41 145 69 125 40 439
66 801 66 303 0 455 -19 908 -114 93 -20 178 -36 189 -36 38 0 -1 28 -93 66
-72 29 -99 47 -136 88 -64 69 -162 154 -204 176 -30 16 -33 19 -16 26 30 12
287 -15 396 -41 232 -57 470 -175 735 -368 240 -174 348 -297 660 -752 185
-270 352 -456 504 -563 76 -53 156 -90 169 -78 4 4 -15 27 -43 49 -163 136
-331 339 -409 492 -49 96 -64 119 -225 351 -172 247 -243 335 -399 499 -117
123 -165 195 -180 270 -14 66 -6 87 41 115 25 15 50 20 112 20 142 0 214 -18
495 -120 63 -23 125 -44 137 -45 12 -2 59 -15 104 -30 70 -24 93 -27 168 -23
100 5 145 24 209 88 23 23 53 65 67 94 42 86 59 222 25 201 -6 -4 -25 -37 -42
-73 -45 -95 -126 -175 -195 -191 -49 -12 -143 -7 -143 8 0 4 17 13 37 20 76
28 148 125 203 276 48 131 122 415 146 560 20 123 14 328 -11 425 -22 83 -76
200 -103 224 -22 19 -22 19 -22 -5 0 -13 7 -46 16 -74 8 -27 22 -102 29 -165
17 -142 7 -263 -35 -436 -39 -159 -154 -505 -188 -567 -29 -55 -84 -107 -111
-107 -25 0 -104 58 -140 103 -25 33 -91 181 -91 208 0 19 -49 158 -80 224 -81
177 -107 296 -95 429 4 39 10 233 15 431 7 298 11 369 26 415 24 79 56 123
120 170 30 23 53 44 50 47 -10 11 -102 -19 -170 -55 -87 -45 -171 -123 -226
-206 -40 -63 -107 -217 -156 -361 -17 -51 -22 -59 -18 -31 20 135 25 501 9
578 -30 139 -184 260 -273 214 -47 -24 -49 -37 -6 -33 62 7 129 -34 162 -99
19 -36 30 -168 22 -250 -18 -169 -55 -305 -119 -433 -120 -239 -272 -383 -596
-566 -143 -81 -242 -148 -309 -210 -27 -25 -50 -44 -52 -42 -1 1 13 28 32 60
51 86 76 150 194 497 99 288 148 428 257 732 21 58 35 110 30 114 -33 33 -232
-313 -338 -589 -31 -79 -40 -92 -89 -131 -62 -49 -307 -213 -384 -258 -115
-66 -397 -195 -371 -170 6 6 82 65 170 133 423 325 636 543 755 772 29 56 71
115 131 181 94 103 135 164 193 286 39 80 73 113 172 164 109 56 273 70 374
30 63 -24 129 -74 169 -128 40 -53 58 -48 38 10 -7 21 -12 48 -11 59 7 48 27
114 55 172 74 154 234 223 367 157 85 -42 152 -117 267 -299 30 -47 124 -248
125 -266 0 -8 4 -19 9 -25 5 -5 30 -64 55 -131 52 -139 143 -339 152 -331 5 5
-16 76 -93 308 -14 41 -27 99 -29 128 -8 98 -34 200 -110 424 -116 342 -176
459 -325 630 -98 112 -157 162 -292 247 -163 101 -254 176 -408 331 -123 124
-149 156 -169 206 -13 32 -34 81 -47 108 -14 26 -21 47 -16 45 4 -2 60 -38
123 -80z m-4667 -379 c42 -56 43 -73 11 -202 -37 -148 -28 -268 30 -395 29
-65 56 -100 185 -237 219 -235 320 -366 392 -509 85 -168 113 -280 113 -457 0
-173 -31 -291 -171 -650 -4 -11 -8 -6 -15 15 -67 196 -154 434 -222 608 -73
184 -125 311 -321 782 -19 44 -64 152 -101 240 -67 158 -68 162 -74 275 -7
124 1 97 -119 363 -15 31 -19 52 -13 63 9 16 238 153 257 154 6 0 28 -23 48
-50z m8489 -130 c11 -13 14 -28 10 -45 -4 -14 -84 -116 -177 -227 -379 -450
-368 -438 -437 -438 -59 1 -77 21 -169 186 -102 183 -109 213 -52 243 34 17
72 13 96 -12 13 -12 48 -68 78 -125 29 -56 57 -102 60 -102 3 0 35 35 70 78
115 139 219 270 219 274 0 3 -55 -4 -122 -14 -258 -38 -889 -130 -1028 -150
-80 -11 -155 -27 -167 -34 -28 -18 -29 -45 -3 -69 20 -18 28 -18 301 23 261
40 281 42 312 27 38 -18 26 0 162 -244 62 -112 109 -209 112 -230 9 -63 4 -70
-249 -360 -134 -154 -149 -182 -104 -203 48 -21 28 -42 670 716 506 598 528
624 580 647 130 59 286 -33 286 -168 0 -71 -43 -132 -315 -453 -148 -173 -327
-384 -399 -469 -72 -85 -183 -216 -246 -291 -378 -449 -397 -470 -426 -470
-44 0 -83 63 -70 113 3 13 106 140 228 283 123 143 405 473 627 733 223 261
410 479 416 485 26 26 36 56 25 76 -11 20 -46 26 -65 12 -6 -4 -85 -95 -175
-202 -91 -107 -177 -208 -191 -225 -15 -16 -94 -109 -175 -206 -545 -644 -596
-701 -648 -725 -58 -27 -78 -29 -127 -13 -53 18 -92 52 -122 107 -35 64 -44
127 -25 172 8 19 87 118 174 220 87 102 165 193 173 203 12 15 3 36 -74 174
-48 87 -88 159 -89 160 0 1 -109 -14 -241 -33 -132 -18 -260 -34 -285 -34 -91
0 -173 62 -195 148 -23 88 8 173 81 225 37 26 63 32 275 63 129 19 484 73 789
119 305 46 569 82 585 79 17 -2 37 -13 47 -24z m-2471 -117 c13 -16 12 -17 -3
-4 -10 7 -18 15 -18 17 0 8 8 3 21 -13z m-8158 -388 c-3 -9 -8 -14 -10 -11 -3
3 -2 9 2 15 9 16 15 13 8 -4z m684 -587 c131 -931 265 -1627 423 -2198 51
-182 59 -229 60 -336 0 -133 -23 -219 -104 -392 -70 -151 -106 -252 -136 -387
-27 -119 -36 -297 -21 -407 8 -57 146 -558 396 -1435 212 -741 385 -1353 385
-1360 0 -22 -293 192 -425 309 -190 171 -403 388 -536 548 -258 311 -537 765
-668 1085 -18 44 -39 95 -47 113 -56 123 -162 454 -208 652 -89 379 -119 643
-119 1050 -1 401 34 713 122 1080 44 187 156 535 211 655 5 11 30 70 56 130
85 195 224 448 357 650 86 130 228 325 237 325 3 0 11 -37 17 -82z m258 -263
c88 -6 104 -10 131 -34 17 -14 59 -46 94 -71 35 -25 93 -77 129 -117 147 -159
186 -268 202 -560 5 -99 13 -202 18 -227 5 -26 6 -48 2 -50 -3 -2 -62 -7 -131
-11 -107 -6 -142 -4 -243 15 -97 18 -121 26 -133 45 -14 22 -89 396 -199 998
-4 23 -2 27 13 23 9 -2 62 -8 117 -11z m4843 -610 c-126 -121 -313 -269 -548
-434 -41 -29 -111 -79 -155 -112 -330 -244 -476 -331 -723 -428 -209 -82 -511
-121 -702 -90 -100 16 -235 65 -323 117 -235 139 -304 287 -278 592 7 74 15
142 18 150 2 8 15 -25 28 -75 29 -114 84 -250 137 -339 49 -84 176 -215 238
-246 132 -67 418 -67 659 0 85 24 279 100 349 137 236 124 261 142 487 339 33
28 118 84 189 124 71 40 172 102 225 138 75 52 121 75 216 107 66 23 152 56
190 72 39 17 72 31 75 32 3 0 -34 -37 -82 -84z m2842 -600 c51 -190 62 -237
90 -375 110 -546 117 -1153 19 -1700 -94 -525 -287 -1056 -538 -1479 -33 -56
-61 -107 -61 -113 0 -5 -4 -6 -10 -3 -6 4 -10 63 -10 143 0 123 -10 258 -26
335 -4 20 -2 27 11 27 25 0 92 38 135 76 82 74 142 200 186 391 25 108 28 135
28 318 0 225 -4 262 -73 710 -28 179 -43 329 -60 579 l-7 108 38 72 c65 121
109 216 143 311 58 160 95 393 95 609 1 114 7 112 40 -9z m-10449 -1207 c15
-100 29 -188 29 -194 0 -6 -128 -125 -285 -264 -157 -140 -285 -257 -285 -260
0 -3 57 -32 128 -63 330 -146 558 -249 565 -256 9 -9 70 -377 65 -396 -2 -8
-42 7 -113 41 -60 30 -294 141 -518 248 l-409 195 -351 -55 c-193 -30 -360
-54 -372 -52 -18 3 -23 20 -46 173 -15 94 -24 173 -20 176 3 4 170 32 370 63
l365 56 40 38 c23 21 158 147 301 279 143 131 314 289 380 350 66 61 121 110
123 108 2 -2 17 -86 33 -187z m666 55 c-3 -10 -5 -4 -5 12 0 17 2 24 5 18 2
-7 2 -21 0 -30z m0 -215 c-3 -8 -6 -5 -6 6 -1 11 2 17 5 13 3 -3 4 -12 1 -19z
m0 -65 c-3 -10 -5 -2 -5 17 0 19 2 27 5 18 2 -10 2 -26 0 -35z m12291 -68
c408 -66 555 -147 664 -366 77 -155 91 -206 91 -339 0 -63 -5 -149 -11 -190
-28 -182 -131 -802 -134 -806 -2 -2 -44 3 -94 11 -49 8 -424 69 -833 135 -409
66 -746 122 -749 125 -5 5 1 46 73 490 65 400 79 457 146 592 65 132 148 220
264 279 191 98 311 112 583 69z m-5191 -191 c-3 -3 -12 -4 -19 -1 -8 3 -5 6 6
6 11 1 17 -2 13 -5z m-1112 -1129 c421 -61 659 -151 1013 -383 21 -13 22 -13
15 3 -4 12 -3 16 4 12 6 -4 14 5 18 21 3 15 17 50 30 78 13 27 29 71 36 98 14
55 23 51 40 -19 7 -27 19 -57 26 -66 7 -8 13 -23 13 -32 0 -10 4 -25 9 -35 5
-9 15 -31 21 -49 7 -18 21 -35 31 -38 10 -4 19 -15 19 -26 0 -54 49 -81 99
-54 17 8 36 12 44 9 8 -3 38 7 66 21 72 38 86 22 55 -60 -8 -22 -21 -60 -28
-85 -7 -25 -17 -53 -21 -62 -5 -13 -3 -18 10 -18 12 0 15 -5 10 -19 -5 -15 0
-21 25 -26 19 -4 36 -16 42 -30 11 -24 78 -65 108 -65 10 0 23 -6 29 -14 7 -8
34 -20 61 -26 47 -11 80 -33 63 -43 -12 -6 -82 -29 -99 -31 -9 -1 -19 -7 -22
-13 -4 -5 -23 -15 -42 -22 -45 -15 -100 -53 -100 -68 0 -7 -9 -13 -19 -13 -18
0 -17 -5 11 -77 40 -105 113 -329 122 -375 l7 -37 -33 10 c-81 26 -97 27 -120
11 -13 -9 -25 -19 -28 -22 -14 -17 -72 -51 -90 -53 -11 -1 -22 -7 -24 -14 -3
-7 -12 -13 -19 -13 -8 0 -34 -9 -58 -20 -60 -26 -88 -81 -133 -260 -21 -80
-41 -149 -46 -154 -22 -22 -38 9 -69 134 -35 140 -56 194 -72 184 -6 -3 -13 3
-16 15 -3 12 -11 21 -18 21 -7 0 -15 4 -17 10 -1 5 -36 14 -77 21 -41 6 -94
20 -118 30 -25 10 -55 19 -67 19 -13 0 -37 7 -53 15 -28 14 -36 14 -87 -2 -31
-9 -56 -21 -56 -25 0 -4 -14 -8 -30 -8 l-31 0 5 85 c3 52 2 85 -4 85 -6 0 -10
4 -10 10 0 5 -35 45 -77 89 -82 82 -100 105 -109 134 -4 9 -12 17 -20 17 -7 0
-21 16 -30 36 -9 20 -25 39 -34 42 -32 13 -80 61 -80 80 0 13 -9 21 -28 25
-66 13 -248 29 -278 24 -27 -5 -34 -2 -39 14 -9 28 -25 23 -25 -7 0 -14 4 -22
10 -19 6 3 7 -1 4 -10 -9 -23 -26 -3 -26 29 0 14 -3 24 -7 22 -4 -3 -31 82
-61 187 -29 106 -95 334 -145 507 -80 275 -90 316 -76 323 33 15 421 -3 596
-28z m5448 -364 c4 -4 -58 -141 -138 -304 -187 -379 -201 -438 -141 -572 13
-28 41 -67 63 -89 46 -43 122 -96 139 -96 6 0 21 23 34 52 29 63 401 821 406
827 5 6 264 -122 264 -130 0 -6 -112 -236 -348 -719 -45 -91 -78 -168 -74
-171 14 -13 149 -57 195 -64 70 -11 176 24 234 78 40 36 68 86 206 367 89 179
162 326 163 328 3 5 263 -123 263 -130 2 -16 -268 -563 -335 -680 -85 -146
-197 -241 -350 -295 -72 -25 -91 -28 -224 -28 -179 0 -238 14 -410 97 -465
222 -648 502 -561 860 27 114 52 174 221 523 45 94 93 193 106 222 l23 52 128
-61 c70 -33 131 -64 136 -67z m-11620 -126 c42 -85 77 -159 77 -164 0 -5 -134
-77 -297 -160 -747 -377 -788 -400 -843 -487 -56 -90 -48 -200 27 -353 72
-146 181 -232 274 -217 103 16 360 128 856 371 l332 163 81 -155 c45 -86 78
-159 73 -163 -18 -18 -1044 -531 -1099 -551 -88 -31 -175 -40 -284 -28 -124
13 -167 35 -265 133 -66 67 -93 105 -157 221 -156 283 -198 391 -205 530 -6
122 8 168 95 295 42 61 75 97 122 131 36 26 236 134 445 240 209 106 448 228
530 271 83 43 152 78 155 78 3 0 40 -70 83 -155z m3047 -16 c169 -36 504 -37
741 -2 35 5 37 4 52 -39 232 -654 251 -700 331 -838 149 -256 216 -415 356
-841 113 -342 136 -429 120 -439 -8 -5 -66 -19 -129 -31 -99 -20 -148 -23
-336 -24 -244 0 -352 15 -543 77 -153 49 -207 110 -272 313 -142 446 -354
1255 -404 1547 -19 110 -32 298 -20 298 5 0 52 -9 104 -21z m2644 -441 c3 -14
9 -33 12 -42 5 -12 2 -15 -10 -10 -9 3 -14 9 -12 13 2 3 -16 4 -41 2 l-46 -3
6 37 c5 29 3 35 -7 26 -7 -6 -11 -22 -8 -36 9 -48 -7 -24 -27 40 -11 36 -17
73 -14 82 4 11 3 14 -5 9 -7 -4 -12 -1 -12 8 0 13 12 16 55 16 37 0 55 4 56
13 0 12 41 -107 53 -155z m226 -133 c0 -5 -5 -3 -10 5 -5 8 -10 20 -10 25 0 6
5 3 10 -5 5 -8 10 -19 10 -25z m-11 -65 c-1 -23 -2 -23 -9 5 -20 73 -21 82 -6
50 9 -16 15 -41 15 -55z m4404 65 c-3 -9 -8 -14 -10 -11 -3 3 -2 9 2 15 9 16
15 13 8 -4z m502 -572 c96 -82 112 -100 102 -113 -7 -8 -140 -165 -297 -349
-157 -184 -294 -348 -306 -365 -30 -45 -54 -112 -54 -149 1 -71 61 -151 137
-184 45 -18 82 -16 121 7 45 27 179 166 344 355 223 254 284 301 428 325 115
19 186 -6 335 -118 107 -79 160 -132 188 -189 27 -52 47 -134 47 -188 0 -85
-78 -222 -276 -485 -129 -172 -503 -630 -536 -658 -12 -9 -35 6 -126 85 -62
53 -112 99 -112 103 0 5 96 120 213 257 117 136 259 302 315 368 119 140 152
197 152 269 0 47 -3 53 -51 99 -55 53 -101 77 -147 77 -61 0 -160 -89 -342
-305 -213 -254 -333 -350 -476 -380 -143 -30 -266 18 -410 160 -73 72 -99 106
-130 170 -38 76 -39 83 -38 180 0 183 30 231 469 743 180 210 330 382 332 382
2 0 56 -44 118 -97z m-934 -86 c-10 -9 -11 -8 -5 6 3 10 9 15 12 12 3 -3 0
-11 -7 -18z m-9088 -164 l145 -172 -55 -143 c-153 -400 -433 -1152 -430 -1155
2 -1 208 171 457 385 249 213 456 387 461 387 8 0 229 -264 228 -273 0 -4 -39
-39 -87 -78 -48 -39 -335 -277 -637 -530 -303 -252 -558 -465 -566 -472 -14
-10 -32 7 -130 125 -63 75 -122 147 -132 159 -17 22 -13 36 238 705 140 375
254 683 252 685 -1 1 -79 -64 -173 -144 -499 -429 -776 -663 -787 -667 -18 -8
-242 265 -231 281 5 6 172 148 371 314 199 165 487 406 640 535 153 128 281
233 285 232 4 -1 72 -79 151 -174z m898 -290 c13 -16 12 -17 -3 -4 -10 7 -18
15 -18 17 0 8 8 3 21 -13z m-2893 -838 c-3 -3 -9 2 -12 12 -6 14 -5 15 5 6 7
-7 10 -15 7 -18z m3497 -366 c134 -94 146 -105 140 -128 -7 -27 -120 -541
-286 -1304 -74 -339 -108 -476 -116 -472 -20 7 -313 217 -313 224 -1 3 23 99
52 213 29 114 50 209 48 211 -3 2 -138 98 -301 214 l-296 210 -178 -123 -179
-123 -70 50 c-39 28 -108 76 -153 107 -45 32 -82 60 -83 63 0 5 507 322 824
515 28 17 204 126 391 243 192 119 347 209 357 207 9 -2 83 -50 163 -107z
m7132 -436 c351 -235 696 -465 766 -512 101 -66 125 -87 115 -96 -19 -17 -295
-194 -313 -201 -12 -5 -199 122 -352 238 -10 8 -87 -40 -514 -321 l-116 -76
22 -95 c13 -52 35 -146 49 -209 15 -63 23 -117 19 -121 -23 -20 -306 -200
-309 -197 -4 4 -320 1741 -326 1789 -3 25 10 36 147 127 83 54 156 100 162
100 7 1 300 -191 650 -426z m-5760 -289 c109 -25 236 -54 283 -65 47 -11 135
-31 195 -45 307 -72 438 -125 542 -219 173 -156 187 -488 32 -720 -59 -88
-140 -155 -224 -187 -52 -20 -77 -23 -200 -22 -139 0 -143 1 -435 72 -162 39
-297 68 -301 64 -3 -4 -34 -131 -69 -282 -34 -151 -65 -278 -69 -282 -5 -6
-338 66 -347 75 -1 1 9 49 23 107 13 58 98 425 189 815 170 732 170 735 178
735 2 0 94 -20 203 -46z m3679 -299 c306 -875 307 -879 371 -936 55 -50 100
-63 188 -56 72 7 288 65 484 131 58 20 106 35 107 33 6 -5 93 -261 90 -264 -5
-6 -413 -146 -518 -179 -136 -42 -263 -56 -362 -39 -161 28 -219 90 -365 383
-105 213 -254 585 -386 963 l-34 97 72 26 c159 57 243 85 256 83 8 -1 46 -94
97 -242z m-1496 -160 c408 -923 650 -1476 650 -1485 0 -6 -61 -11 -167 -12
-93 -1 -181 -2 -197 -2 -28 -1 -30 3 -109 202 l-81 202 -200 0 c-111 0 -278
-3 -371 -7 l-170 -6 -70 -201 -70 -201 -192 -3 -192 -2 30 72 c17 40 68 165
114 278 45 113 187 461 314 773 127 313 231 573 231 577 0 10 130 17 293 16
l98 -1 89 -200z m4930 -199 c0 -2 -8 -10 -17 -17 -16 -13 -17 -12 -4 4 13 16
21 21 21 13z m-635 -476 c-3 -5 -12 -10 -18 -10 -7 0 -6 4 3 10 19 12 23 12
15 0z m-6638 -1116 c-3 -3 -12 -4 -19 -1 -8 3 -5 6 6 6 11 1 17 -2 13 -5z
m1180 0 c-3 -3 -12 -4 -19 -1 -8 3 -5 6 6 6 11 1 17 -2 13 -5z"/>
<path d="M5605 15824 c-184 -30 -373 -131 -506 -271 -134 -141 -205 -295 -229
-497 -32 -270 63 -532 264 -731 161 -159 341 -237 581 -252 394 -24 771 252
877 642 17 65 22 109 22 235 1 184 -10 236 -84 385 -114 231 -323 403 -565
466 -79 20 -291 34 -360 23z m329 -114 c39 -10 97 -29 128 -43 188 -83 356
-274 425 -482 23 -70 26 -96 27 -215 0 -162 -16 -233 -81 -370 -40 -83 -58
-107 -142 -190 -181 -179 -353 -248 -591 -236 -217 10 -369 75 -510 216 -133
133 -209 288 -230 466 -49 438 243 813 685 878 55 8 216 -5 289 -24z"/>
<path d="M5578 15564 c-168 -40 -342 -183 -414 -339 -82 -176 -76 -401 13
-563 81 -148 206 -251 373 -308 78 -27 291 -27 370 0 130 44 259 142 334 254
205 309 91 737 -243 906 -120 61 -301 82 -433 50z m345 -117 c85 -31 132 -64
205 -141 221 -237 171 -608 -106 -792 -88 -59 -171 -84 -283 -84 -161 0 -277
48 -382 159 -163 174 -192 400 -80 613 63 120 203 228 339 263 85 21 220 13
307 -18z"/>
<path d="M5649 15317 c-105 -30 -194 -106 -243 -207 -28 -59 -31 -74 -31 -160
0 -84 3 -102 28 -153 37 -74 110 -147 184 -184 51 -25 69 -28 153 -28 82 0
103 4 153 27 69 32 154 115 185 179 89 184 6 412 -181 499 -75 35 -178 47
-248 27z"/>
<path d="M15457 14788 c-14 -13 -87 -90 -163 -173 -609 -657 -576 -628 -640
-559 l-34 35 -11 -28 c-34 -89 -124 -324 -163 -422 -25 -63 -44 -116 -42 -118
1 -2 173 180 382 404 208 224 466 499 571 612 106 113 193 213 193 222 0 20
-31 49 -53 49 -9 0 -27 -10 -40 -22z"/>
<path d="M16410 9104 c-121 -24 -194 -79 -234 -179 -24 -60 -113 -551 -102
-562 3 -4 203 -37 974 -161 79 -13 115 -15 117 -8 15 48 75 487 75 544 0 148
-81 234 -284 301 -50 17 -131 38 -181 47 -89 16 -317 27 -365 18z"/>
<path d="M9877 7343 c-4 -3 -7 -16 -7 -27 1 -20 1 -20 13 2 7 12 16 19 20 16
4 -4 7 -2 7 4 0 13 -22 16 -33 5z"/>
<path d="M9927 7310 c3 -25 6 -46 7 -47 1 -1 6 19 12 44 9 38 9 43 -2 29 -12
-16 -13 -16 -17 1 -3 10 -3 -2 0 -27z"/>
<path d="M9885 7280 c-4 -17 -5 -34 -2 -36 2 -3 7 10 11 27 3 18 4 34 2 36 -2
3 -7 -10 -11 -27z"/>
<path d="M6085 4303 c-262 -174 -278 -186 -260 -200 11 -8 88 -62 170 -121 83
-58 163 -116 178 -129 16 -13 32 -23 37 -23 4 0 43 141 85 313 42 171 78 320
81 330 3 9 2 17 -3 16 -4 0 -134 -84 -288 -186z"/>
<path d="M13113 4343 c2 -5 35 -152 72 -328 37 -176 69 -322 71 -324 4 -5 414
262 414 270 0 9 -538 389 -551 389 -6 0 -8 -3 -6 -7z"/>
<path d="M8041 3673 c-17 -66 -101 -431 -101 -440 0 -5 37 -17 83 -27 45 -10
109 -24 142 -32 157 -37 293 -64 326 -64 19 0 58 7 85 15 148 44 213 257 114
377 -52 62 -132 92 -459 167 -69 16 -138 32 -153 36 -25 6 -28 4 -37 -32z"/>
<path d="M9866 3420 c-3 -8 -57 -152 -120 -320 l-113 -305 245 -3 c135 -1 247
0 250 3 4 3 -129 335 -244 610 -9 21 -14 26 -18 15z"/>
</g>
</svg>
